# xmcd
#
# Track frame offsets:
#  150
#  16482
#  30095
#  46578
#  62440
#  76345
#  90510
#  107851
#  118834
#  134837
#  148044
#  159979
#  168934
#  183704
#  196645
#  211416
#  222386
#  235330
#  248070
#  259665
#  269142
#
# Disc length: 3745 seconds
#
# Revision: 0
# Processed by: cddbd v1.5.1PL2 Copyright (c) Steve Scherf et al.
# Submitted via: Collectorz.com_Music_Collector 6.11
#
DISCID=270e9f15
DTITLE=Various Artist - Classic Songs - Country Style [CD2)
DYEAR=2004
DGENRE=Country
TTITLE0=Kenny Rogers (1938-    ) - The Wind Beneath My Wings
TTITLE1=Kenny Rogers (1938-    ) - I Will Always Love You
TTITLE2=Floyd Cramer - You've Lost Thay Lovin' Feelin'
TTITLE3=Crystal Gayle X - Ain't No Sunshine
TTITLE4=Kenny Rogers (1938-    ) - Love Me Tender
TTITLE5=Waylon Jennings - Sweet Caroline
TTITLE6=Kenny Rogers (1938-    ) - Endless Love
TTITLE7=Don Williams (1939-    ) - Reason To Believe
TTITLE8=Willie Nelson (1933-    ) - Always On My Mind
TTITLE9=Floyd Cramer - When A Man Loves A Woman
TTITLE10=Glen Campbell (1936-    ) - You Don't Have To Say You Love Me
TTITLE11=Tammy Wynette (1942-1998) - Yesterday
TTITLE12=Waylon Jennings - Unchained Melody
TTITLE13=Glen Campbell (1936-    ) - Words
TTITLE14=Billie Jo Spears (1937-    ) - I Don't Want To Talk About It
TTITLE15=Patsy Cline (1932-1963) - Love Letters In The Sand
TTITLE16=Jim Reeves (1923-1964) - Have I Told You Lately That I Love You?
TTITLE17=Johnny Rodriguez - Something
TTITLE18=Dottie West - Are You Lonesome Tonight?
TTITLE19=Glen Campbell (1936-    ) - Bobbie Gentry - Let It Be Me
TTITLE20=Slim Whitman - Secret Love
EXTD=
EXTT0=
EXTT1=
EXTT2=
EXTT3=
EXTT4=
EXTT5=
EXTT6=
EXTT7=
EXTT8=
EXTT9=
EXTT10=
EXTT11=
EXTT12=
EXTT13=
EXTT14=
EXTT15=
EXTT16=
EXTT17=
EXTT18=
EXTT19=
EXTT20=
PLAYORDER=
